<svg width="24" height="24" viewBox="0 0 24 24" fill="none" xmlns="http://www.w3.org/2000/svg">
<path d="M15.0752 2.00585L15.1504 2.02343L21.6396 4.01952C21.8537 4.08537 22 4.28393 22 4.5078V6.99413C22 7.17321 21.9056 7.33943 21.752 7.43163L19.2725 8.91991C18.9325 9.12382 18.5001 8.8787 18.5 8.48241V6.8457L15 5.5332L11.5 6.8457V8.16991L21.6904 12.5381H21.6914C21.8786 12.6185 22 12.8029 22 13.0068V17.9932C21.9999 18.2069 21.8663 18.3979 21.666 18.4717L12.1768 21.9678C12.063 22.0097 11.937 22.0097 11.8232 21.9678L2.34668 18.4766C2.25164 18.4415 2.177 18.3836 2.12207 18.3135C2.04718 18.2264 2.00002 18.1128 2 17.9824V11.5059C2 11.3267 2.09444 11.1605 2.24805 11.0684L4.72754 9.58007L4.79199 9.54687C5.11959 9.40708 5.49994 9.64593 5.5 10.0176V16.1465L12 18.4687L18.5 16.1465V14.8291L8.30957 10.4619C8.12199 10.3815 8 10.1971 8 9.99316V4.5078C8 4.28389 8.14639 4.08536 8.36035 4.01952L14.8496 2.02343C14.9228 2.00091 15.0002 1.99467 15.0752 2.00585ZM4.79199 3.54687C5.11959 3.40708 5.49994 3.64593 5.5 4.01757V7.49413C5.5 7.67327 5.40558 7.83946 5.25195 7.93163L2.77246 9.41991C2.43256 9.62379 2.00006 9.37874 2 8.98241V5.50585C2 5.32671 2.09444 5.16052 2.24805 5.06835L4.72754 3.58007L4.79199 3.54687Z" fill="black"/>
</svg>
